<?xml version="1.0" encoding="UTF-8"?>
<svg id="uuid-de75e1c7-a287-4095-9ca1-4412234b21e0" data-name="Camada 2" xmlns="http://www.w3.org/2000/svg" viewBox="0 0 3247.552 579.544" width="180" height="32">
  <defs>
    <style>
      .uuid-34c0dee8-bc10-425c-a240-be0e4daaa662 {
        fill: #fff;
      }
    </style>
  </defs>
  <g id="uuid-37eb0377-1be9-4182-94e2-30a4055829d1" data-name="Camada 1">
    <g>
      <g>
        <path class="uuid-34c0dee8-bc10-425c-a240-be0e4daaa662" d="M119.312,490.669c-11.668,9.586-27.586,14.375-47.75,14.375h-33.5l-13,72.75H2.312l31-174.25h56.25c17.332,0,30.332,3.711,39,11.125,8.664,7.418,13,17.293,13,29.625,0,2.168-.336,5.586-1,10.25-2.5,14.5-9.586,26.543-21.25,36.125ZM104.062,478.419c7-5.75,11.414-13.707,13.25-23.875.5-3,.75-5.75.75-8.25,0-16.5-10.586-24.75-31.75-24.75h-33.5l-11.5,65.5h33.5c12.5,0,22.25-2.875,29.25-8.625Z"/>
        <path class="uuid-34c0dee8-bc10-425c-a240-be0e4daaa662" d="M182.061,570.419c-11-6.082-19.543-14.625-25.625-25.625-6.086-11-9.125-23.582-9.125-37.75,0-19.664,4.457-37.539,13.375-53.625,8.914-16.082,21.207-28.75,36.875-38,15.664-9.25,33.164-13.875,52.5-13.875,14.664,0,27.539,3.043,38.625,9.125,11.082,6.086,19.625,14.586,25.625,25.5,6,10.918,9,23.461,9,37.625,0,19.836-4.461,37.793-13.375,53.875-8.918,16.086-21.211,28.75-36.875,38-15.668,9.25-33.25,13.875-52.75,13.875-14.5,0-27.25-3.039-38.25-9.125ZM262.936,547.669c11.582-7.582,20.625-17.789,27.125-30.625,6.5-12.832,9.75-26.75,9.75-41.75,0-16.5-4.75-29.5-14.25-39s-22.418-14.25-38.75-14.25c-14.668,0-27.793,3.793-39.375,11.375-11.586,7.586-20.586,17.75-27,30.5-6.418,12.75-9.625,26.625-9.625,41.625,0,16.5,4.707,29.543,14.125,39.125,9.414,9.586,22.289,14.375,38.625,14.375,14.664,0,27.789-3.789,39.375-11.375Z"/>
        <path class="uuid-34c0dee8-bc10-425c-a240-be0e4daaa662" d="M580.809,403.544l-81.25,174.25h-25.5l-15.75-140.25-66.5,140.25-25.5.25-18-174.5h24.5l12,147.25,67.75-147.25h25.75l14,146.75,64-146.75h24.5Z"/>
        <path class="uuid-34c0dee8-bc10-425c-a240-be0e4daaa662" d="M619.309,421.294l-10.5,59.75h63.25l-3,17.5h-63.25l-11,61.25h71l-3.25,18h-93.75l31-174.5h93.5l-3.25,18h-70.75Z"/>
        <path class="uuid-34c0dee8-bc10-425c-a240-be0e4daaa662" d="M817.056,414.794c8.832,7.5,13.25,17.5,13.25,30,0,2-.336,5.336-1,10-2.168,12-7.5,22.586-16,31.75-8.5,9.168-19.918,15.25-34.25,18.25l30.75,73h-27.25l-29-71.25h-27.25l-12.75,71.25h-22.75l31-174.25h56c17.332,0,30.414,3.75,39.25,11.25ZM806.556,446.544c0-8-2.625-14.164-7.875-18.5-5.25-4.332-13.293-6.5-24.125-6.5h-33.25l-11.75,66.75h33.5c12.332,0,22.082-3.039,29.25-9.125,7.164-6.082,11.664-14.207,13.5-24.375.5-3,.75-5.75.75-8.25Z"/>
        <path class="uuid-34c0dee8-bc10-425c-a240-be0e4daaa662" d="M887.052,421.294l-10.5,59.75h63.25l-3,17.5h-63.25l-11,61.25h71l-3.25,18h-93.75l31-174.5h93.5l-3.25,18h-70.75Z"/>
        <path class="uuid-34c0dee8-bc10-425c-a240-be0e4daaa662" d="M1101.673,421.544c13.75,12,20.625,28.668,20.625,50,0,6.668-.586,13.168-1.75,19.5-3.168,17.836-9.625,33.293-19.375,46.375-9.75,13.086-22.168,23.086-37.25,30-15.086,6.918-32.125,10.375-51.125,10.375h-54.25l31-174.25h54.25c24.832,0,44.125,6,57.875,18ZM1070.548,541.919c14-12.25,22.914-29.207,26.75-50.875,1-6,1.5-11.664,1.5-17,0-16.5-4.918-29.289-14.75-38.375-9.836-9.082-24.336-13.625-43.5-13.625h-31.5l-24.5,138.25h31.5c22.332,0,40.5-6.125,54.5-18.375Z"/>
        <path class="uuid-34c0dee8-bc10-425c-a240-be0e4daaa662" d="M1324.917,473.419c-6.75,6.75-14.961,11.625-24.625,14.625,8.164,1.336,14.832,5.293,20,11.875,5.164,6.586,7.75,14.375,7.75,23.375,0,2.668-.25,5.25-.75,7.75-1.5,8.836-5.125,16.793-10.875,23.875-5.75,7.086-13.293,12.668-22.625,16.75-9.336,4.086-19.836,6.125-31.5,6.125h-65l31-174.25h62.5c15.664,0,27.539,3.336,35.625,10,8.082,6.668,12.125,15.336,12.125,26,0,2.668-.25,5.418-.75,8.25-1.836,10.336-6.125,18.875-12.875,25.625ZM1305.542,522.294c0-7.664-2.836-13.75-8.5-18.25-5.668-4.5-13.418-6.75-23.25-6.75h-39.5l-11,62.5h40.25c11.164,0,20.414-2.75,27.75-8.25,7.332-5.5,11.832-13.082,13.5-22.75.5-2.332.75-4.5.75-6.5ZM1314.792,444.294c0-7.164-2.5-12.75-7.5-16.75s-12.25-6-21.75-6h-37.75l-10.25,57.75h38.25c10.5,0,19.164-2.539,26-7.625,6.832-5.082,11-12.125,12.5-21.125.332-1.5.5-3.582.5-6.25Z"/>
        <path class="uuid-34c0dee8-bc10-425c-a240-be0e4daaa662" d="M1497.29,403.544l-76,108.5-11.75,65.75h-22.75l11.75-65.75-38-108.5h25.5l27.25,87.75,58.25-87.75h25.75Z"/>
      </g>
      <g>
        <polygon class="uuid-34c0dee8-bc10-425c-a240-be0e4daaa662" points="3096.465 353.02 2986.259 255.695 2876.058 353.02 2733.116 353.02 2843.3 226.422 2860.503 247.064 2829.639 313.941 2829.639 313.941 2953.972 176.511 2829.639 39.08 2829.639 39.08 2860.503 105.956 2843.3 126.598 2733.116 0 2876.058 0 2986.259 97.325 3096.465 0 3245.271 0 3133.913 118.392 3118.048 104.905 3148.428 39.082 3148.428 39.082 3024.094 176.511 3148.428 313.939 3148.428 313.939 3118.048 248.116 3133.913 234.63 3245.271 353.02 3096.465 353.02"/>
        <path class="uuid-34c0dee8-bc10-425c-a240-be0e4daaa662" d="M13.126,345.523l47.8-61.594h280.493c38.435,0,52.074-24.305,52.074-45.119,0-21.813-13.985-45.119-53.233-45.119H121.202C65.91,193.689,0,178.494,0,106.098,0,60.193,16.477,7.498,144.963,7.498h291.68l-48.392,63.332H132.213c-47.001,0-52.074,30.338-52.074,43.381,0,10.312,3.755,43.961,52.074,43.961h220.217c120.622,0,120.622,62.001,120.622,82.374,0,63.011-22.68,104.975-133.371,104.975H13.126Z"/>
        <path class="uuid-34c0dee8-bc10-425c-a240-be0e4daaa662" d="M780.028,345.523v-109.822L576.008,7.498h104.889l80.058,97.024c19.662,23.307,35.602,44.412,40.782,53.974l21.477,39.648,22.031-39.343c6.383-11.398,22.557-33.778,39.331-54.427L960.811,7.498h101.739l-197.747,229.025v109h-84.775Z"/>
        <path class="uuid-34c0dee8-bc10-425c-a240-be0e4daaa662" d="M1529.437,352.765c-9.099,0-18.781-1.31-37.071-17.128l-260.139-228.487v238.082h-72.026V57.13c0-47.007,26.201-56.875,48.182-56.875,9.451,0,19.398,1.265,37.071,16.55l260.72,229.078V7.208h72.024v288.683c0,47.007-26.516,56.875-48.76,56.875Z"/>
        <polygon class="uuid-34c0dee8-bc10-425c-a240-be0e4daaa662" points="1838.815 345.523 1838.815 70.83 1688.245 70.83 1736.963 7.498 2112.41 7.498 2063.695 70.83 1923.593 70.83 1923.593 345.523 1838.815 345.523"/>
        <path class="uuid-34c0dee8-bc10-425c-a240-be0e4daaa662" d="M2296.889,348.999l44.911-61.594h74.3c17.548,0,39.385,0,50.385,1.047l63.951,6.084-43.226-47.521c-3.958-4.354-15.345-20.042-24.368-33.574l-85.113-123.876-186.468,259.434h-97.64l219.798-306.067c19.153-26.939,39.539-38.91,66.17-38.91,26.862,0,47.005,11.873,65.305,38.492l213.92,306.486h-361.925Z"/>
        <path class="uuid-34c0dee8-bc10-425c-a240-be0e4daaa662" d="M2693.23,538.508v37.501h-178.816v-173.848h44.705v136.347h134.111Z"/>
        <path class="uuid-34c0dee8-bc10-425c-a240-be0e4daaa662" d="M3247.552,525.345c0,29.303-17.136,50.664-56.626,50.664h-158.948v-173.848h152.989c39.486,0,51.658,20.115,51.658,45.695,0,12.172-4.968,24.093-13.663,33.778,14.904,9.188,24.59,23.592,24.59,43.711ZM3076.683,470.458h92.389c11.921,0,22.848,0,22.848-18.13,0-17.88-10.927-17.88-23.098-17.88h-92.139v36.01ZM3202.847,523.11c0-18.381-10.927-18.381-22.848-18.381h-103.316v36.758h103.316c11.921,0,22.848,0,22.848-18.377Z"/>
        <path class="uuid-34c0dee8-bc10-425c-a240-be0e4daaa662" d="M2821.514,576.518l22.765-31.222h37.662c8.895,0,19.964,0,25.54.531l32.416,3.084-21.911-24.088c-2.006-2.207-7.778-10.159-12.352-17.019l-43.143-62.792-94.52,131.505h-49.493l111.414-155.143c9.709-13.655,20.042-19.723,33.541-19.723,13.616,0,23.827,6.018,33.103,19.511l108.435,155.355h-183.457Z"/>
      </g>
    </g>
  </g>
</svg>