<?xml version="1.0" encoding="UTF-8"?>
<svg id="uuid-77cd2dbc-d950-491d-adf8-627806ff9bfe" data-name="Camada 2" xmlns="http://www.w3.org/2000/svg" xmlns:xlink="http://www.w3.org/1999/xlink" viewBox="0 0 250.132 215.557">
  <defs>
    <style>
      .uuid-c2cbf1ef-f617-46ed-ba20-68970df67d0e {
        fill: url(#uuid-80115ab5-bd84-4be4-ba5b-342ae7d9b0ff);
      }
    </style>
    <linearGradient id="uuid-80115ab5-bd84-4be4-ba5b-342ae7d9b0ff" data-name="Gradiente sem nome 143" x1="0" y1="107.779" x2="250.132" y2="107.779" gradientUnits="userSpaceOnUse">
      <stop offset="0" stop-color="#fe5b14"/>
      <stop offset="1" stop-color="#fe4f00"/>
    </linearGradient>
  </defs>
  <g id="uuid-ae0fa7b0-211d-471a-a27a-19dde64b1edd" data-name="Camada 1">
    <path class="uuid-c2cbf1ef-f617-46ed-ba20-68970df67d0e" d="M203.488,71.417c-8.543,6.561-17.216,25.329-24.804,28.195-6.776,2.56-14.667-.016-17.457-6.984-3.913-9.773,2.26-10.341,3.497-17.972.594-3.664-.618-6.012-.441-8.634.254-3.756,3.221-9.549,3.671-14.139,6.901-70.347-92.639-68.001-85.983,0,.706,7.213,2.538,12.589,3.185,20.723.658,8.265,8.06,11.074,3.364,20.843-3.243,6.746-10.37,8.741-17.275,6.161-6.779-2.533-13.89-18.392-19.789-24.212C28.713,52.959-6.255,70.178.964,100.393c.855,2.634,2.865,2.931,3,0,.248-7.493,5.781-19.336,13.08-22.415,18.143-7.654,25.927,19.314,34.95,29.885,9.149,10.718,21.871,17.09,35.96,12.53-2.993,8.516-11.787,11.987-18.002,17.488-9.639,8.533-11.024,14.904-17.758,24.242-13.836,19.183-36.464,1.664-25.251-17.251,6.971-11.76,17.258-16.138,14.931-32.892-1.189-8.561-10.917-17.511-19.932-15.118-6.999,1.858-8.927,11.577-.978,12.521-8.019-10.7,9.853-11.863,12.551-3.043,4.83,15.785-13.077,22.473-19.357,33.747-10.785,19.358,3.977,41.318,25.302,41.74,21.232.42,29.351-17.166,42.977-29.461,3.932-3.548,8.553-6.456,12.517-9.973-3.028,21.146-22.867,33.069-15.463,55.973,3.298,10.202,16.379,21.625,27.389,15.444,5.933-3.331,8.995-14.801,1.085-17.407,5.564,15.549-14.091,17.36-18.512,4.009-5.037-15.208,7.475-22.06,14.317-32.714,3.535-5.504,18.321-22.133,19.566-28.536,2,7.412,13.898,15.452,17.458,21.903,7.125,12.909,25.116,24.761,17.677,41.334-5.675,12.642-25.291,6.648-16.506-6.996-8.815,3.134-6.979,15.15.728,18.763,10.315,4.836,21.343-3.941,25.465-13.08,10.889-24.141-11.66-37.325-14.183-59.693,22.045,12.796,33.551,47.458,64.048,39.559,19.872-5.148,27.625-28.754,14.918-45.035-6.075-7.784-24.832-19.783-15.005-32.054,3.622-4.522,13.625-5.032,12.824,1.82-.348,2.975-2.347,1.857-2.791,3.7,6.357.207,8.05-7.391,3.246-11.01-8.53-6.424-21.409,3.465-23.011,12.76-2.921,16.952,7.457,21.332,14.406,33.114,12.133,20.57-11.259,36.775-24.876,17.876-7.095-9.847-8.595-16.302-18.758-25.242-5.893-5.184-14.242-8.438-17.002-16.488,14.306,3.979,26.668-1.605,35.961-12.53,9.225-10.844,15.602-37.111,34.318-30.258,6.669,2.442,9.975,8.294,12.432,14.567l2.267,14.213c13.383-28.226-18.216-54.357-43.463-34.968ZM109.069,81.191c-9.971,5.176-18.156-22.123-14.941-18.588,2.914,3.204,20.706,13.706,14.941,18.588ZM140.887,81.058c-5.765-4.882,12.027-15.384,14.941-18.588,3.215-3.535-4.971,23.765-14.941,18.588Z"/>
  </g>
</svg>