<?xml version="1.0" encoding="UTF-8"?>
<svg id="uuid-52f2f5ad-a961-421a-a082-537daab15e26" data-name="Camada 2" xmlns="http://www.w3.org/2000/svg" viewBox="0 0 250.132 215.557">
  <defs>
    <style>
      .uuid-76355d8f-65e8-43f6-bd9c-f55442833659 {
        fill: #fe5b14;
      }
    </style>
  </defs>
  <g id="uuid-ef93845b-5ccc-463d-8ed8-228d09aad043" data-name="Camada 1">
    <path class="uuid-76355d8f-65e8-43f6-bd9c-f55442833659" d="M.964,100.393c-7.218-30.215,27.75-47.434,50.494-24.994,5.899,5.82,13.01,21.68,19.789,24.212,6.905,2.58,14.032.585,17.275-6.161,4.696-9.769-2.707-12.578-3.364-20.843-.647-8.134-2.479-13.509-3.185-20.723-6.655-68.001,92.884-70.347,85.983,0-.45,4.59-3.418,10.383-3.671,14.139-.177,2.622,1.035,4.97.441,8.634-1.237,7.631-7.411,8.199-3.497,17.972,2.79,6.968,10.681,9.543,17.457,6.984,7.588-2.866,16.261-21.635,24.804-28.195,25.247-19.389,56.846,6.742,43.463,34.968l-2.267-14.213c-2.457-6.273-5.763-12.125-12.431-14.567-18.716-6.854-25.093,19.414-34.318,30.258-9.293,10.925-21.655,16.509-35.961,12.53,2.76,8.05,11.109,11.304,17.002,16.488,10.163,8.94,11.663,15.394,18.758,25.242,13.618,18.899,37.009,2.694,24.876-17.876-6.949-11.782-17.327-16.162-14.406-33.114,1.602-9.295,14.48-19.184,23.011-12.76,4.805,3.619,3.111,11.217-3.246,11.01.444-1.843,2.443-.725,2.791-3.7.801-6.852-9.202-6.342-12.824-1.82-9.828,12.271,8.929,24.27,15.005,32.054,12.707,16.281,4.954,39.888-14.918,45.035-30.497,7.9-42.003-26.763-64.048-39.559,2.522,22.368,25.071,35.552,14.183,59.693-4.122,9.139-15.15,17.916-25.465,13.08-7.707-3.613-9.543-15.63-.728-18.763-8.785,13.644,10.831,19.637,16.506,6.996,7.439-16.573-10.552-28.425-17.677-41.334-3.56-6.451-6.256-13.476-7.841-20.664l-4.861,30.616c-.075,5.278-2.048,11.477,1.843,15.906,5.326,6.062,23.906-1.286,20.017,13.463-1.835-.402-1.038-3.208-2.512-4.964-3.033-3.614-11.408-.154-16.748-1.259-3.662-.758-7.721-5.746-8.229-5.745-.324,0-2.69,2.893-5.426,3.549-4.286,1.028-14.5-.246-16.555,4.445-.817,1.864.303,4.859-1.507,4.976-5.688-16.373,15.731-7.714,17.777-16.711,1.362-5.99-2.064-8.251-3.346-13.225-1.845-7.154-.737-11.714-.396-18.515.054-1.086.667-4.726-1.035-4.537-1.244,6.403-4.672,13.794-8.207,19.299-6.842,10.654-19.353,17.506-14.317,32.714,4.422,13.351,24.077,11.54,18.512-4.009,7.91,2.606,4.848,14.076-1.085,17.407-11.01,6.182-24.091-5.242-27.389-15.444-7.404-22.904,12.435-34.826,15.463-55.973-3.964,3.517-8.585,6.425-12.517,9.973-13.626,12.295-21.745,29.881-42.977,29.461-21.326-.422-36.087-22.382-25.302-41.74,6.281-11.273,24.188-17.961,19.357-33.747-2.699-8.82-20.57-7.657-12.551,3.043-7.949-.943-6.021-10.663.978-12.521,9.015-2.393,18.743,6.557,19.932,15.118,2.327,16.754-7.96,21.132-14.931,32.892-11.213,18.914,11.415,36.434,25.251,17.251,6.735-9.337,8.119-15.709,17.758-24.242,6.215-5.501,15.009-8.972,18.002-17.488-14.09,4.56-26.811-1.812-35.96-12.53-9.024-10.571-16.807-37.539-34.95-29.885-7.298,3.079-12.831,14.921-13.079,22.415-.135,2.931-2.145,2.634-3,0ZM100.958,84.388c1.911-3.18-3.011-16.742-6.48-15.99-4.669,1.012,1.468,16.528,6.48,15.99ZM156.956,68.4c-3.679-2.817-12.088,16.074-6.492,15.973,2.78-.05,9.574-13.614,6.492-15.973Z"/>
  </g>
</svg>